<svg id="visual" viewBox="0 0 900 600" width="900" height="600" xmlns="http://www.w3.org/2000/svg" xmlns:xlink="http://www.w3.org/1999/xlink" version="1.1"><rect x="0" y="0" width="900" height="600" fill="#e4fdeb"></rect><defs><linearGradient id="grad1_0" x1="33.3%" y1="0%" x2="100%" y2="100%"><stop offset="20%" stop-color="#004747" stop-opacity="1"></stop><stop offset="80%" stop-color="#004747" stop-opacity="1"></stop></linearGradient></defs><defs><linearGradient id="grad1_1" x1="33.3%" y1="0%" x2="100%" y2="100%"><stop offset="20%" stop-color="#004747" stop-opacity="1"></stop><stop offset="80%" stop-color="#759e92" stop-opacity="1"></stop></linearGradient></defs><defs><linearGradient id="grad1_2" x1="33.3%" y1="0%" x2="100%" y2="100%"><stop offset="20%" stop-color="#e4fdeb" stop-opacity="1"></stop><stop offset="80%" stop-color="#759e92" stop-opacity="1"></stop></linearGradient></defs><defs><linearGradient id="grad2_0" x1="0%" y1="0%" x2="66.7%" y2="100%"><stop offset="20%" stop-color="#004747" stop-opacity="1"></stop><stop offset="80%" stop-color="#004747" stop-opacity="1"></stop></linearGradient></defs><defs><linearGradient id="grad2_1" x1="0%" y1="0%" x2="66.7%" y2="100%"><stop offset="20%" stop-color="#759e92" stop-opacity="1"></stop><stop offset="80%" stop-color="#004747" stop-opacity="1"></stop></linearGradient></defs><defs><linearGradient id="grad2_2" x1="0%" y1="0%" x2="66.7%" y2="100%"><stop offset="20%" stop-color="#759e92" stop-opacity="1"></stop><stop offset="80%" stop-color="#e4fdeb" stop-opacity="1"></stop></linearGradient></defs><g transform="translate(900, 0)"><path d="M0 405.6C-74.9 397.3 -149.8 389 -202.8 351.3C-255.8 313.6 -286.8 246.4 -317 183C-347.1 119.6 -376.4 59.8 -405.6 0L0 0Z" fill="#acccbd"></path><path d="M0 270.4C-49.9 264.9 -99.9 259.3 -135.2 234.2C-170.5 209 -191.2 164.3 -211.3 122C-231.4 79.7 -250.9 39.9 -270.4 0L0 0Z" fill="#41716b"></path><path d="M0 135.2C-25 132.4 -49.9 129.7 -67.6 117.1C-85.3 104.5 -95.6 82.1 -105.7 61C-115.7 39.9 -125.5 19.9 -135.2 0L0 0Z" fill="#004747"></path></g><g transform="translate(0, 600)"><path d="M0 -405.6C72.7 -396 145.4 -386.5 202.8 -351.3C260.2 -316.1 302.2 -255.3 333.4 -192.5C364.7 -129.7 385.1 -64.8 405.6 0L0 0Z" fill="#acccbd"></path><path d="M0 -270.4C48.5 -264 97 -257.6 135.2 -234.2C173.5 -210.7 201.5 -170.2 222.3 -128.3C243.1 -86.5 256.8 -43.2 270.4 0L0 0Z" fill="#41716b"></path><path d="M0 -135.2C24.2 -132 48.5 -128.8 67.6 -117.1C86.7 -105.4 100.7 -85.1 111.1 -64.2C121.6 -43.2 128.4 -21.6 135.2 0L0 0Z" fill="#004747"></path></g></svg>